<svg width="24" height="31" viewBox="0 0 24 31" fill="none" xmlns="http://www.w3.org/2000/svg">
<path d="M1.72882 22.1V18.03C1.59882 17.065 2.27882 16.175 3.24882 16.05C4.21382 15.92 5.09882 16.6 5.22882 17.565C5.24882 17.72 5.24882 17.875 5.22882 18.03V20.7261" stroke="#546E7A" stroke-linecap="round" stroke-linejoin="round"/>
<path d="M22.2307 16.588C22.5829 17.606 22.7728 18.672 22.7728 19.8159C22.7728 25.358 18.2801 29.8508 12.7379 29.8508C10.2098 29.9832 7.17695 28.6136 4.98405 26.9479C4.0326 26.0179 3.11085 25.1211 2.5205 24.4227C2.1205 24.1227 1.8084 23.1922 1.76465 22.2114" stroke="#546E7A" stroke-linecap="round" stroke-linejoin="round"/>
<path d="M10.8407 18.1082C10.178 20.0266 10.2164 21.17 9.19135 21.6988C7.2354 21.0091 5.229 20.7262 5.229 20.7262" stroke="#546E7A" stroke-linecap="round" stroke-linejoin="round"/>
<path d="M8.01504 14.555L3.57524 15.205C2.63024 15.465 1.66024 14.91 1.40524 13.965C1.15024 13.025 1.70524 12.055 2.64524 11.8C2.79524 11.76 2.95024 11.74 3.11024 11.74L8.15004 11.005C8.47504 10.945 8.79004 10.965 9.08504 11.06" stroke="#546E7A" stroke-linecap="round" stroke-linejoin="round"/>
<path d="M10.8406 18.1082L8.01514 14.555" stroke="#546E7A" stroke-linecap="round" stroke-linejoin="round"/>
<path d="M9.08496 11.06C9.43496 11.11 9.76996 11.26 10.045 11.515C10.16 11.62 10.26 11.74 10.34 11.875L13.4745 15.591" stroke="#546E7A" stroke-linecap="round" stroke-linejoin="round"/>
<path d="M9.69625 9.07341L7.03 4.50501C6.44 3.73001 6.595 2.62001 7.37 2.03501C8.145 1.44501 9.255 1.59501 9.845 2.37001C9.925 2.47501 13.9 9.15501 15.2 11.335V11.34" stroke="#546E7A" stroke-linecap="round" stroke-linejoin="round"/>
<path d="M19.2301 12.5956C18.5201 9.7656 16.4099 1.775 16.3649 1.66C16.0249 0.745001 15.0099 0.280001 14.0949 0.620001C13.1799 0.965001 12.7199 1.98 13.0599 2.895L13.9163 6.2723" stroke="#546E7A" stroke-linecap="round" stroke-linejoin="round"/>
<path d="M18.875 5.985C18.78 5.01 19.49 4.15 20.46 4.055C21.43 3.96 22.295 4.67 22.39 5.64C22.405 5.795 22.24 16.31 22.24 16.31C22.24 16.405 22.24 16.495 22.225 16.585" stroke="#546E7A" stroke-linecap="round" stroke-linejoin="round"/>
<path d="M14.9128 10.8961L16.7032 13.7234" stroke="#546E7A" stroke-linecap="round" stroke-linejoin="round"/>
</svg>
