<svg width="30" height="36" viewBox="0 0 30 36" fill="none" xmlns="http://www.w3.org/2000/svg">
<path d="M2.9518 16.5205C2.73367 16.5205 2.55664 16.3435 2.55664 16.1254V14.1468C2.55664 10.6967 3.93771 7.49042 6.44577 5.11869C6.60423 4.96893 6.85436 4.97565 7.00452 5.1345C7.15428 5.29296 7.14757 5.54309 6.98871 5.69325C4.6403 7.91403 3.34695 10.9164 3.34695 14.1472V16.1258C3.34695 16.3435 3.16992 16.5205 2.9518 16.5205Z" fill="#546E7A"/>
<path d="M27.0079 16.5205C26.7894 16.5205 26.6128 16.3435 26.6128 16.1254V14.1468C26.6128 10.916 25.3198 7.91403 22.971 5.69285C22.8125 5.54309 22.8054 5.29295 22.9556 5.1341C23.1058 4.97525 23.3559 4.96932 23.5143 5.1183C26.022 7.49002 27.4031 10.6963 27.4031 14.1464V16.125C27.4031 16.3435 27.2264 16.5205 27.0079 16.5205Z" fill="#546E7A"/>
<path d="M2.95169 28.7143C1.73857 28.7143 0.751465 27.7275 0.751465 26.5144V18.0035C0.751465 16.7904 1.73857 15.8033 2.95169 15.8033C4.16482 15.8033 5.15192 16.7904 5.15192 18.0035V26.5144C5.15153 27.7275 4.16482 28.7143 2.95169 28.7143ZM2.95169 16.5936C2.17442 16.5936 1.54178 17.2263 1.54178 18.0035V26.5144C1.54178 27.2917 2.17442 27.9239 2.95169 27.9239C3.72897 27.9239 4.36161 27.2913 4.36161 26.5144V18.0035C4.36122 17.2259 3.72897 16.5936 2.95169 16.5936Z" fill="#546E7A"/>
<path d="M27.0081 28.7143C25.795 28.7143 24.8079 27.7275 24.8079 26.5144V18.0035C24.8079 16.7904 25.795 15.8033 27.0081 15.8033C28.2212 15.8033 29.2083 16.7904 29.2083 18.0035V26.5144C29.2087 27.7275 28.2216 28.7143 27.0081 28.7143ZM27.0081 16.5936C26.2304 16.5936 25.5982 17.2263 25.5982 18.0035V26.5144C25.5982 27.2917 26.2308 27.9239 27.0081 27.9239C27.7854 27.9239 28.418 27.2913 28.418 26.5144V18.0035C28.4184 17.2259 27.7858 16.5936 27.0081 16.5936Z" fill="#546E7A"/>
<path d="M22.0152 6.59144C21.7077 6.59144 21.3972 6.49463 21.1288 6.29863C19.334 4.98474 17.2077 4.29045 14.9798 4.29045C12.7519 4.29045 10.6256 4.98474 8.83079 6.29863C8.23529 6.73489 7.43114 6.67917 6.91823 6.16586L6.15163 5.39926C5.85763 5.10526 5.70313 4.69904 5.72763 4.28413C5.75252 3.86328 5.958 3.47129 6.29072 3.20891C8.79009 1.23905 11.7949 0.197815 14.9798 0.197815C18.1652 0.197815 21.1695 1.23905 23.6685 3.20891C24.0016 3.47168 24.2071 3.86368 24.232 4.28452C24.2565 4.69904 24.102 5.10566 23.808 5.39926L23.0418 6.16586C22.7597 6.44761 22.3898 6.59144 22.0152 6.59144ZM14.9798 3.50014C17.3764 3.50014 19.664 4.24738 21.5955 5.66085C21.8749 5.86515 22.2479 5.84223 22.4826 5.60711L23.2489 4.84051C23.3852 4.70418 23.4543 4.5232 23.4425 4.33075C23.431 4.13515 23.335 3.95219 23.1789 3.8293C20.821 1.97049 17.9854 0.988127 14.9798 0.988127C11.9743 0.988127 9.13861 1.97049 6.78032 3.8293C6.62423 3.95219 6.52821 4.13476 6.51675 4.33075C6.50529 4.5232 6.57445 4.70418 6.71038 4.84051L7.47698 5.60711C7.7121 5.84183 8.08552 5.86436 8.36371 5.66085C10.2956 4.24738 12.5832 3.50014 14.9798 3.50014Z" fill="#546E7A"/>
<path d="M14.9799 35.7619C13.5755 35.7619 12.4331 34.6191 12.4331 33.2151C12.4331 31.8111 13.5755 30.6683 14.9799 30.6683C16.3843 30.6683 17.5267 31.8107 17.5267 33.2147C17.5267 34.6187 16.3843 35.7619 14.9799 35.7619ZM14.9799 31.4586C14.0114 31.4586 13.2234 32.2466 13.2234 33.2147C13.2234 34.1836 14.0114 34.9716 14.9799 34.9716C15.9484 34.9716 16.7364 34.1836 16.7364 33.2151C16.7364 32.2466 15.9484 31.4586 14.9799 31.4586Z" fill="#546E7A"/>
<path d="M22.6068 33.6102H17.1315C16.913 33.6102 16.7363 33.4336 16.7363 33.2151C16.7363 32.9966 16.913 32.8199 17.1315 32.8199H22.6064C24.8157 32.8199 26.6129 31.0228 26.6129 28.8134V28.3191C26.6129 28.1006 26.7895 27.924 27.008 27.924C27.2265 27.924 27.4032 28.1006 27.4032 28.3191V28.8134C27.4032 31.4582 25.2516 33.6102 22.6068 33.6102Z" fill="#546E7A"/>
<path d="M10.3307 22.3696H8.00761C7.85982 22.3696 7.72428 22.2871 7.65632 22.1555C7.58875 22.0243 7.59981 21.8662 7.68556 21.7453L9.80439 18.7666C9.9585 18.5501 9.98023 18.277 9.86248 18.0356C9.80873 17.9253 9.64474 17.6673 9.28436 17.6511L9.24524 17.6503C8.78054 17.6503 8.40237 18.0285 8.40237 18.4932C8.40237 18.7117 8.22534 18.8883 8.00722 18.8883C7.78909 18.8883 7.61206 18.7117 7.61206 18.4932C7.61206 17.5926 8.34468 16.86 9.24524 16.86L9.31835 16.8616C9.86366 16.8861 10.3319 17.1955 10.5726 17.689C10.8152 18.1869 10.7678 18.7753 10.4481 19.2242L8.77303 21.5789H10.3299C10.5481 21.5789 10.7251 21.7556 10.7251 21.9741C10.7251 22.1926 10.5493 22.3696 10.3307 22.3696Z" fill="#546E7A"/>
<path d="M14.0843 22.3696C13.8662 22.3696 13.6892 22.193 13.6892 21.9745V21.4924H11.3277C11.1795 21.4924 11.044 21.4094 10.976 21.2778C10.9084 21.1458 10.9199 20.9874 11.0064 20.8668L13.7631 17.0247C13.863 16.8852 14.0416 16.8268 14.2052 16.8789C14.3688 16.9315 14.4795 17.0836 14.4795 17.2551V20.7021H14.9667C15.1848 20.7021 15.3619 20.8787 15.3619 21.0972C15.3619 21.3157 15.1848 21.4924 14.9667 21.4924H14.4795V21.9745C14.4795 22.193 14.3024 22.3696 14.0843 22.3696ZM12.0979 20.7025H13.6892V18.4841L12.0979 20.7025Z" fill="#546E7A"/>
<path d="M19.1832 27.3071C19.1152 27.3071 19.0464 27.2897 18.9836 27.2526C18.7951 27.1423 18.7323 26.9001 18.8429 26.712L21.2621 22.5878H19.1835C18.965 22.5878 18.7884 22.4111 18.7884 22.1926C18.7884 21.9741 18.965 21.7975 19.1835 21.7975H21.952C22.0935 21.7975 22.2243 21.8733 22.295 21.9962C22.3653 22.1195 22.3646 22.2701 22.2926 22.3926L19.5242 27.1119C19.4507 27.2376 19.3183 27.3071 19.1832 27.3071Z" fill="#546E7A"/>
<path d="M14.0906 27.3071C14.0246 27.3071 13.9583 27.2905 13.8966 27.2561C13.7065 27.1486 13.6398 26.9076 13.7469 26.7175L19.202 17.0607C19.3099 16.8702 19.5497 16.8039 19.7406 16.9109C19.9303 17.018 19.9974 17.2595 19.8903 17.4491L14.4352 27.1068C14.3625 27.2352 14.2289 27.3071 14.0906 27.3071Z" fill="#546E7A"/>
</svg>
