<svg width="28" height="36" viewBox="0 0 28 36" fill="none" xmlns="http://www.w3.org/2000/svg">
<path d="M13.98 35.7611C13.6374 35.7611 13.2948 35.7069 12.9687 35.5991C5.22922 33.0282 0.228516 26.8914 0.228516 19.9643V7.40309C0.228516 6.32906 0.993538 5.41032 2.04742 5.21827C6.13017 4.47577 9.69014 2.94217 12.6277 0.66054C13.4236 0.0425154 14.5355 0.0425154 15.3318 0.66054C18.2698 2.94217 21.8289 4.47577 25.9121 5.21827C26.9656 5.40992 27.7306 6.32906 27.7306 7.40309V19.9643C27.7306 26.8914 22.7303 33.0286 14.9916 35.5991C14.6652 35.7069 14.3226 35.7611 13.98 35.7611ZM2.33035 6.77361C2.02845 6.82853 1.80954 7.09329 1.80954 7.40309V19.9643C1.80954 26.1983 6.38545 31.7467 13.4666 34.0991C13.7974 34.2093 14.1621 34.2085 14.4941 34.0991C21.5749 31.7471 26.1504 26.1987 26.1504 19.9643V7.40309C26.1504 7.09329 25.9311 6.82814 25.6296 6.77361C21.2939 5.98488 17.5036 4.34814 14.3629 1.90923C14.1376 1.73497 13.8231 1.73457 13.5974 1.90923C10.4567 4.34814 6.66601 5.98488 2.33035 6.77361Z" fill="#546E7A"/>
<path d="M12.1774 23.3429C11.9352 23.3429 11.7068 23.2319 11.5566 23.0418L7.95243 18.469C7.68214 18.1261 7.74102 17.6293 8.08401 17.3591C8.42701 17.0884 8.92412 17.148 9.19401 17.4906L12.1774 21.2762L18.7655 12.9179C19.0362 12.5745 19.5321 12.5164 19.8755 12.7863C20.2181 13.0566 20.2774 13.5533 20.0067 13.8963L12.7982 23.0422C12.6485 23.2319 12.4197 23.3429 12.1774 23.3429Z" fill="#546E7A"/>
</svg>
