<svg width="36" height="18" viewBox="0 0 36 18" fill="none" xmlns="http://www.w3.org/2000/svg">
    <path d="M30.3066 17.448C28.6367 17.448 27.2786 16.0895 27.2786 14.42C27.2786 12.7504 28.6371 11.3923 30.3066 11.3923C31.9762 11.3923 33.3347 12.7508 33.3347 14.42C33.3347 16.0895 31.9766 17.448 30.3066 17.448ZM30.3066 12.1822C29.0726 12.1822 28.0689 13.1859 28.0689 14.4196C28.0689 15.6536 29.0726 16.6573 30.3066 16.6573C31.5407 16.6573 32.5444 15.6536 32.5444 14.4196C32.5444 13.1863 31.5407 12.1822 30.3066 12.1822Z" fill="#546E7A"/>
    <path d="M7.96607 17.448C6.29614 17.448 4.93799 16.0895 4.93799 14.42C4.93799 12.7504 6.29654 11.3923 7.96607 11.3923C9.63561 11.3923 10.9942 12.7508 10.9942 14.42C10.9942 16.0895 9.63561 17.448 7.96607 17.448ZM7.96607 12.1822C6.732 12.1822 5.7283 13.1859 5.7283 14.4196C5.7283 15.6536 6.73239 16.6573 7.96607 16.6573C9.19975 16.6573 10.2038 15.6536 10.2038 14.4196C10.2038 13.1863 9.19975 12.1822 7.96607 12.1822Z" fill="#546E7A"/>
    <path d="M2.21147 14.825C1.10069 14.825 0.197754 13.9225 0.197754 12.8125V2.4254C0.197754 1.37033 1.05603 0.511658 2.1115 0.511658H23.8688C25.091 0.511658 26.2397 1.05065 27.021 1.99033L30.9682 6.74011C31.1081 6.90805 31.0848 7.157 30.9172 7.29649C30.7481 7.43598 30.4995 7.41227 30.3608 7.24512L26.4132 2.49534C25.7825 1.73704 24.8555 1.30158 23.8692 1.30158C15.3723 1.30158 10.6084 1.30158 2.1115 1.30158C1.49189 1.30197 0.988066 1.80579 0.988066 2.4254V12.8129C0.988066 13.4866 1.53615 14.0351 2.21028 14.0351L5.33162 14.0252H5.33281C5.55054 14.0252 5.72718 14.2011 5.72797 14.4192C5.72876 14.6373 5.55252 14.8147 5.334 14.8155L2.21147 14.825Z" fill="#546E7A"/>
    <path d="M34.5436 14.825L32.9353 14.8151C32.7171 14.8124 32.5421 14.6338 32.5449 14.4152C32.5476 14.1971 32.7278 14.0149 32.9448 14.0248L34.544 14.0347C34.7803 14.0347 34.9719 13.843 34.9719 13.6067V9.92942C34.9719 9.61488 34.7874 9.3272 34.5021 9.19562L30.5778 7.38778H22.8414C22.1653 7.38778 21.6152 6.83772 21.6152 6.162V0.97676C21.6152 0.758634 21.7919 0.581604 22.0104 0.581604C22.2289 0.581604 22.4055 0.758634 22.4055 0.97676V6.162C22.4055 6.40226 22.6008 6.59746 22.8414 6.59746H30.6643C30.7216 6.59746 30.7777 6.60971 30.8299 6.63382L34.8324 8.47801C35.3967 8.73763 35.7618 9.30784 35.7618 9.92942V13.6067C35.7618 14.2785 35.2153 14.825 34.5436 14.825Z" fill="#546E7A"/>
    <path d="M27.6737 14.8152H10.599C10.3809 14.8152 10.2039 14.6385 10.2039 14.42C10.2039 14.2015 10.3809 14.0248 10.599 14.0248H27.6737C27.8922 14.0248 28.0689 14.2015 28.0689 14.42C28.0689 14.6385 27.8922 14.8152 27.6737 14.8152Z" fill="#546E7A"/>
    <path d="M30.3087 14.8163C30.2016 14.8163 30.1028 14.7732 30.0281 14.6978C29.953 14.6231 29.9092 14.5243 29.9092 14.4212C29.9092 14.3145 29.9526 14.2121 30.0281 14.1406C30.1739 13.9944 30.4391 13.9944 30.5849 14.1406C30.66 14.2157 30.6995 14.3145 30.6995 14.4212C30.6995 14.5243 30.66 14.6231 30.5849 14.6978C30.5493 14.7373 30.5063 14.7649 30.4588 14.7847C30.4114 14.8045 30.3601 14.8163 30.3087 14.8163Z" fill="#546E7A"/>
    <path d="M7.96645 14.8163C7.85975 14.8163 7.76096 14.7732 7.68588 14.6978C7.61081 14.6266 7.57129 14.5279 7.57129 14.4212C7.57129 14.3698 7.58314 14.3184 7.6029 14.2671C7.62266 14.2196 7.65032 14.1762 7.68588 14.1406C7.83209 13.9944 8.09685 13.9944 8.24701 14.1406C8.28257 14.1762 8.31023 14.2196 8.32999 14.2671C8.34975 14.3184 8.3616 14.3698 8.3616 14.4212C8.3616 14.4725 8.34975 14.5243 8.32999 14.5713C8.31023 14.6187 8.28257 14.6622 8.24701 14.6978C8.17193 14.7729 8.07314 14.8163 7.96645 14.8163Z" fill="#546E7A"/>
</svg>
    