<svg width="25" height="24" viewBox="0 0 25 24" fill="none" xmlns="http://www.w3.org/2000/svg">
<path d="M13.5 3.2524C15.6627 2.63619 18.0428 3.14662 19.6981 4.80192C21.3534 6.45723 21.8638 8.8373 21.2476 11M15.4369 5.96407C16.2093 5.81021 17.0991 6.0767 17.7612 6.73883C18.4233 7.40095 18.6898 8.29065 18.5359 9.0631" stroke="#263238" stroke-width="1.5" stroke-linecap="round" stroke-linejoin="round"/>
<path d="M15.6653 20.8835C16.5469 21.0388 17.4531 21.0388 18.3347 20.8835C19.7516 20.6338 20.8929 19.6826 21.286 18.4236L21.3694 18.1565C21.456 17.879 21.5 17.5919 21.5 17.3034C21.5 16.0313 20.3623 15 18.9589 15H15.0411C13.6377 15 12.5 16.0313 12.5 17.3034C12.5 17.5919 12.544 17.879 12.6306 18.1565L12.714 18.4236C13.1071 19.6826 14.2484 20.6338 15.6653 20.8835ZM15.6653 20.8835C9.54195 19.7489 4.75108 14.958 3.6165 8.83468M3.6165 8.83468C3.46117 7.95315 3.46117 7.04686 3.6165 6.16532C3.86618 4.74842 4.81744 3.60713 6.07641 3.21402L6.34345 3.13063C6.62103 3.04396 6.90813 3 7.19661 3C8.46874 3 9.50001 4.13768 9.5 5.54106L9.5 9.45894C9.50001 10.8623 8.46874 12 7.19661 12C6.90813 12 6.62103 11.956 6.34345 11.8694L6.07641 11.786C4.81744 11.3929 3.86618 10.2516 3.6165 8.83468Z" stroke="#263238" stroke-width="1.5"/>
</svg>
